<?xml version="1.0" encoding="utf-8"?>
<!-- Generator: Adobe Illustrator 19.2.1, SVG Export Plug-In . SVG Version: 6.00 Build 0)  -->
<svg version="1.1" id="レイヤー_1" xmlns="http://www.w3.org/2000/svg" xmlns:xlink="http://www.w3.org/1999/xlink" x="0px"
	 y="0px" viewBox="0 0 1085.2 206" style="enable-background:new 0 0 1085.2 206;" xml:space="preserve">
<style type="text/css">
	.st0{fill:#FFFFFF;}
</style>
<g>
	<path class="st0" d="M3.2,113.7c-0.9-1.7-2.5-3.4-2.7-5.2c-2-15.6,2-30.3,7.9-44.5c2.9-7,6.9-13.5,10.3-20.1
		c-1.9,0.6-4.3,1.3-6.7,2.1c-0.1-0.3-0.2-0.5-0.3-0.8c3.1-2.9,6.3-8.4,9.4-8.4c9.7,0.1,11.5-9.1,17.6-13.1c13.6-8.8,27-17.4,43.4-20
		c8.5-1.3,16.9-3.5,25.4-3.7c25-0.4,48.4,5.5,68.8,20.5c22.7,16.8,38.1,38.5,42.5,67.1c2.9,18.7,1.2,36.9-6.3,54.2
		c-7.9,18-20.2,32.8-36.4,44.1c-9.3,6.6-19.2,11.8-30.9,12.8c-2,0.2-3.7,3-5.8,3.5c-6.1,1.5-12.3,2.9-18.5,3.5
		c-20,1.6-39.3-1.3-57.7-9.8c-15.7-7.2-29-17.4-40-30.5c-12-14.4-19.8-30.6-18.5-50c0-0.6-0.1-1.3-0.1-2
		C4,113.4,3.6,113.5,3.2,113.7z M157.5,74.8c-1.8,3.3-0.4,5.7,2.4,7.5c2.5,1.6,5.2,2.9,7.9,4.2c5.3,2.6,11.5,1.1,15.7-3.2
		c2.3-2.4,2.3-4.4,0.3-6.9c-6-7.4-13.8-6.3-21.8-4.8c-0.6-3-1.2-6-1.6-7.9c4.4-1.9,8.8-3.4,12.8-5.7c3.2-1.9,3.9-4.9,0.6-7.7
		c-7.7-6.7-16.7-6.9-24.3-0.5c-1.8,1.5-2,4.7-3.3,8.1c-3.4,1.1-8.2,2.8-13.6,4.6c0.4-1.2,0.4-2.1,0.8-2.6c3.6-3.6,1.8-6-1.4-8.5
		c-5.5-4.2-15.5-4.8-21.7-1.2c-3.6,2.1-7,1.4-9.8-2.1c8.6-0.4,11.6-6.2,13.2-13.3c0.9-3.9-1.2-5.6-4.8-5.9
		c-9.5-0.7-16.8,5.5-18.4,15.2c-0.3,1.9-0.7,3.8-1.2,6.4c-2.8-1.2-4.9-2.1-7.5-3.2c5-5.1,7.9-10.2,7.9-16.8c0-4.2-1.5-7.9-5.2-8.5
		c-2.5-0.5-6.2,1.5-8.4,3.5c-2.4,2.2-4.4,3.4-7.7,3.6c-9.6,0.4-18.6,8-16,19.8c0.7,3.1-1.2,4.2-3.8,5.3c-14.6,6.1-27.7,14.3-36,28.5
		c-0.5,0.8-0.6,1.8-0.9,2.6c1.6-0.7,2.4-1.7,3.2-2.7c8.2-10,17.4-18.6,29.9-23.2c4.1-1.5,5.9-0.9,6.9,3.7c2.1,9.5,10.2,13.5,19.5,10
		c0-3.3,0-6.7,0-11.2c2.7,0.9,7.4,1.9,7.3,2.7c-0.2,3.6,2.3,7.5-2.6,10.9c-8.5,6-10,14-5.3,22.6c0.7,1.3,3.6,2.7,4.6,2.3
		c3-1.5,6.2-3.4,8.1-6c2.1-3,2.9-6.9,4.2-10.4c8.6,1.6,9.2,1.7,10.2-4.3c0.7-4.4-0.6-9.1-1-13.8c1.6,0.4,3.7,1,5.9,1.7
		c-2.6,7.5-2.9,14.3,3.2,20.1c-6.5,5.9-14.2,11.1-8.3,21.9c-5.3,3-8.3,7.7-7.1,14.2c0.3,1.5,2.6,3.9,3.8,3.8c6.4-0.4,12.5-2,16-8.3
		c0.8-1.5,1.7-3,2.6-4.6c2.9,3.6,5.2,6.9,8,9.7c2.9,2.9,6.3,2.1,8-1.6c3.1-6.6,2.4-16.9-6-21.8c-1.3-0.7-2.2-2-3.3-2.9
		c3.6,1.1,6.5,4.2,9.5,4.4c2.3,0.1,4.8-3.4,8-5.9c1.2,0.7,3.7,2.2,6.2,3.7c-7.2,7.9-8.3,9.7-8.5,14c-0.2,5.9,3.8,9.2,9.3,7
		c2.8-1.1,5.1-3.6,7.7-5.2c1.3-0.7,3-0.8,4.5-1.1c-0.3,1.7-0.1,3.6-1,5c-2.3,3.8-6.4,4.3-10.4,5c-7.3,1.2-12.6,4.8-14.5,12.4
		c-1.3,5.2,2.2,9.3,7.2,7.9c4.7-1.2,9.2-3.2,14.2-5c0.8,0.8,1.9,2,3,3.2c3.7,3.9,6.3,3.7,9.2-0.7c3.9-5.8,6.2-15.6-0.7-20.9
		c-0.4-0.3-0.4-1.1-0.8-2.3c1.7,0.6,2.7,0.9,3.7,1.3c5,2.2,7.9,0.4,7.3-5.1c-0.3-3.2-1.9-6.2-2.7-9.4c-0.3-1.2-0.4-3.2,0.3-3.9
		c3-3,4-7.2,0.8-9.7c-4.3-3.4-9.4-6-14.3-8.5c-1.7-0.8-4.7,0.8-6.1-0.1c-4.1-2.6-7.7-6-11-8.6C145.8,75.4,151.7,75.1,157.5,74.8z
		 M177.3,182.3c5.3-5.1,10.3-9.6,14.9-14.6c20.1-21.9,26.8-48.1,23.9-77c-1.9-19.2-10.2-35.8-22.5-50.6
		c-12.1-14.6-27.1-24.7-44.7-31.2c-13.3-4.9-27.1-5.5-41.1-5.6c-19.5-0.2-37.4,4.6-54.3,14c-5.3,2.9-10,6.9-15.8,11
		c1.9,0.4,2.3,0.7,2.5,0.6c2.1-1.2,4.2-2.5,6.4-3.8c20.2-12,42-17.6,65.6-16.3c28.9,1.6,53.4,12.6,73,33.8
		c16,17.3,24.5,38.1,25.4,61.8c0.8,22.5-7,42.3-20.3,60.1c-3,4.1-6.6,7.7-9.9,11.6c-0.4-0.4-0.8-0.7-1.2-1.1
		c1.5-1.7,3.2-3.3,4.5-5.1c7.6-9.9,15.3-19.7,19-31.8c5.8-19,6.6-37.9,1-57.3c-6.6-22.9-20.2-40.4-39.7-53.1
		C133.8,7.9,101,5.8,67.3,17.3c-18.6,6.3-34.3,17.1-45.9,33.4c-1,1.5-1.7,3.2-2.6,4.7c6.7-5,12.4-10.8,18.6-15.8
		c5.5-4.4,11.4-8.6,17.7-11.8c18.5-9.4,38.4-12.1,59-10.1c23.9,2.2,44.3,12.3,61,28.7c16.9,16.7,24.8,38.2,26.3,61.9
		c0.7,11.8-3,22.8-6.8,33.9c-6.5,18.9-19.1,32.7-35.3,43.6c-3.4,2.3-6.8,4.4-10.1,6.7c20.6-4.1,20.9-4.2,24.3-9.6
		c-0.8,0.1-1.4,0.2-2,0.3c-0.5,0.1-0.9,0.1-1.8,0.2C173.5,178.6,175.3,178.1,177.3,182.3z M138,200.4c-0.1-0.3-0.2-0.6-0.3-0.9
		c-4.8-0.9-9.6-2-14.4-2.5c-13-1.4-25.3-5.5-36.8-11.3c-14-7.1-26-17.2-35.6-29.6c-16.3-21.2-22.7-45.5-20-72.1c0.1-1.3,0-2.7,0-4.4
		c-3.3,2-7.8,11.5-7,13.9c0.2,0.4,0.5,1,0.8,1.2c3.6,1.8,2,4.7,1.6,7.4c-0.4,2.3-0.9,4.6-0.7,6.8c1.1,12.7,4.2,25,9.9,36.3
		c11.7,23,29.6,39.9,54,49.2c13.9,5.4,28.3,8.4,43.3,7.4C134.5,201.5,136.3,200.8,138,200.4z M112.5,203.3
		c-49-9.7-78.9-38.9-89-88.1C20.6,160.3,65.6,205,112.5,203.3z M122.7,133.8c-2.5-3.8-5.1-8-8.1-11.8c-0.5-0.6-3.2-0.2-4.3,0.6
		c-6.8,4.6-9.1,13.3-5.5,20.6c2.8,5.8,9.3,7,12.9,1.9C119.9,142.2,120.8,138.3,122.7,133.8z M121.8,45.1c9.6-0.2,13.6-2.8,16.9-11.2
		c1.7-4.3,0.2-7.2-4.3-7.9c-9.1-1.6-15.2,1.9-18.8,10.6C112.9,43.5,114.1,45.2,121.8,45.1z M169.6,165.7c0.4-0.3,0.7-0.5,1.1-0.8
		c-2.7-4.2-5.2-8.5-8.3-12.3c-0.7-0.9-3.9-0.8-5.1,0c-4.7,3.3-7,11.8-5,17.1c1.6,4.1,3.1,8.4,8.2,8.9c3,0.3,7.4-5,8.6-10
		C169.4,167.7,169.5,166.7,169.6,165.7z M183.4,150.7c0-6.7-4.4-13.6-9.7-15.2c-1.4-0.4-4.4,0.6-5.1,1.9c-3.6,6.2-3.8,12.9,0.4,18.7
		c2,2.7,6.1,3.9,9.2,5.8c1.7-2.9,3.4-5.7,4.9-8.6C183.7,152.2,183.4,150.9,183.4,150.7z M189.3,123.8c6.4,0.1,7.9-1.2,7.3-6.3
		c-1-8.1-7.7-14.5-15.5-14.7c-4.6-0.1-6.8,1.7-6.3,6.1C175.7,116.9,179.5,124.2,189.3,123.8z M153.6,148.2c-1.1-1.1-3.5-5-4.9-4.7
		c-8.7,2-15.5,6.2-15.1,17c0.2,5.7,2.3,7.5,7.8,5.9C148,164.5,152.7,157.8,153.6,148.2z"/>
	<path class="st0" d="M690.3,180.2c-5-1.3-9.9-2.6-14.9-3.9c0-0.5,0.1-1.1,0.1-1.6c1.3-0.5,2.7-1.1,4.4-1.8
		c-5.2-10.1-17.2-5.9-24.4-12.3c8-5.7-1.2-6.1-2.2-9.9c2.1,1.3,4.2,2.9,6.5,3.8c2.5,1,5.2,1.3,7.8,1.9c1.5,0.4,3,0.6,4.5,1.1
		c6.7,2.3,13.1,5.7,20,6.8c4,0.6,9.8-1.1,12.7-4c9.2-9.1,17-19.6,21.1-32.1c4.1-12.4,2.3-24.9-1.9-37.1c-1.5-4.4-4.3-6.3-8.9-6.4
		c-9.1-0.2-18.3-1.1-27.4-0.9c-4.2,0.1-8.4,1.7-12.4,3.1c-14.1,4.6-24.9,13.2-32.9,25.8c-2.6,4.2-2.6,8.3-2.6,12.8
		c0,5.4-0.8,10.8-1,16.2c-0.1,2.5-0.2,5.7,1.2,7.4c8.1,10.2,5.1,21,2.4,31.8c-0.8,3.4-11.7,7.9-15,6.4c-2.6-1.2-4.8-1.8-7.1,0.6
		c-0.7,0.7-2.7,1.1-3.6,0.7c-5.2-2.3-10.4-4.8-12.8-10.4c-2.6-6.1-5-12.3-7.4-18.4c-0.4-0.9-0.6-2.1-1.2-2.7
		c-4.7-4.6-5.3-10.4-5.3-16.5c0-6.2-1.1-12.6-0.4-18.7c1.4-12.5,3-25,5.6-37.3c2.7-12.7,8.8-24.2,16.5-34.8
		c8.3-11.4,19-19.7,31.1-26.5c1.6-0.9,4.3-0.6,6.3-0.1c3,0.7,13.4-2.9,15.6-4.8c2-1.7,5.1-3,7.7-2.8c4.3,0.3,7.6-0.2,9.2-4.6
		c0.2-0.5,0.5-0.9,0.8-1.2c4.4-4.5,9.8-0.8,14.7-1.3c1.6-0.2,3.8,4.1,5.5,6.6c0.9,1.3,0.9,3.5,2,4.5c5.5,4.6,4,10.9,4.2,16.7
		c0.2,5.2-2.6,9.1-6.6,12.3c-7.8,6.3-16,10.2-26.6,7.8c-4.1-0.9-8.8,0.7-13.3,1.2c-0.9,0.1-2,0.2-2.8-0.2c-8.3-3.4-8.3-3.5-14.8-0.9
		c-2.5-2.6-4.1-5.3-6.6-6.5c-1.7-0.8-5.2-0.3-6.5,1c-4.1,3.9-7.5,8.5-10.7,12.2c0.1-0.7,0.4-2.6,0.8-4.9
		c-10.7,7.3-14.9,37.8-5.5,45.3c-0.5-9.5-0.9-18.1-1.4-26.7c0.6,0,1.1-0.1,1.7-0.1c0,3.4-0.1,6.8,0,10.1c0.1,2,0.3,4,0.9,5.9
		c1.6,5.8,4.6,6.8,9.5,3.2c4.3-3.1,8.4-6.4,12.7-9.5c12.3-9,26.7-12.7,41.1-16.7c11.2-3.1,22.4-1.7,33.5-3c8.1-0.9,15.3,1.2,22.8,3
		c3.6,0.8,7.6,1,11.3,0.7c7.6-0.5,13.9,3.9,16.4,10.8c2.2,6,6.1,11.4,8.1,17.4c1.3,4,1.2,8.7,0.5,12.9c-2.4,14.8-4.6,29.8-8.4,44.3
		c-1.5,5.7-6.6,10.8-10.9,15.5c-5.5,6.1-11.8,11.4-17.8,17.1c-2,1.9-3.7,2.8-7,2.2c-3.3-0.7-7,1.3-10.6,1.6
		c-5.1,0.5-10.5,1.4-14.7-3.2c-0.7-0.7-2.4-0.4-3.7-0.6c-8.7-1.6-17.4-3.2-26.1-4.9c-0.6-0.1-1-0.8-1.8-1.4c7.8,1.5,15.3,3,22.8,4.4
		c0.3-0.8,0.6-1.5,0.9-2.3c-2-1.4-4-2.7-6.1-4.1c1-0.9,3.1-2.2,2.9-2.7c-0.8-2.4-7-3.6-9.8-1.6C685.7,177.3,688,178.8,690.3,180.2z
		 M640.3,98.9c20.5-16.4,44.3-23.1,69.6-24.5c-12.9-6-25.2-2.5-38.1,2C658.9,80.9,647.6,86.6,640.3,98.9z M621.5,46.8
		c-5.9,0.4-9.3,4.8-11.8,9.1c-7.5,13.3-9.3,23.7-6.1,27.6C609.4,71.7,615.3,59.5,621.5,46.8z M725,82.2c-4.1-5.4-30.9-6.4-35.5-2.3
		C700.8,80.7,712.7,81.4,725,82.2z"/>
	<path class="st0" d="M949,175.4c-2.9-3.7-5.3-6-6.7-8.8c-1.4-2.7-1.7-6-2.4-8.6c3.6-1.3,8-1.8,10.4-4.2c2.7-2.7,4.2-7.1,5.1-11
		c1.2-5.1,1.6-10.5,1.9-15.7c0.1-1.8-1.1-3.6-2.2-6.5c-6.3,5.3-12.6,9.3-17.1,14.8c-8.3,10.1-19.5,14.5-31.3,18.3
		c-4.8-2.8-9.3-0.2-13.8,1.8c-0.3-7.4,3.6-12.1,10-12.9c1-0.1,2.2-0.2,2.8-0.8c8-8.6,20.2-10.1,29-17.4c3-2.5,6.2-4.8,9.2-7.3
		c1.6-1.4,2.9-3.4,4.7-4.4c5.7-3,7-7.8,6.9-13.7c-0.3-11.5-0.1-10.9-11.3-9.3c-14.8,2.1-29.7,3.4-44.6,4.5c-3.5,0.2-8.2,0.2-9.5-5.1
		c-0.2-0.7-1.4-1.3-2.3-1.8c-4.1-2.4-4-3.7-1-7.5c4.4-5.5,11-6.7,17-8.4c7-2,14.4-3.1,21.6-3.4c12.1-0.4,24.2,0.4,36.3,0.2
		c3.3-0.1,6.8-1.3,9.7-2.9c3.3-1.9,5.2-1.5,7.6,1.3c2.5,2.9,1.2,4.2-0.9,6.5c-4.6,5.2-9.2,10.5-9.7,17.9c-0.1,1.9,0.2,3.9,0.9,5.6
		c0.4,1,1.9,2.1,2.9,2.1c0.8,0,1.9-1.5,2.4-2.6c1-2.3,1.7-4.7,2.5-7c2.2-6.9,3.4-14.1,8.5-19.9c1.4-1.6,1.5-4.3,2.7-5.3
		c3.7-1.9,7.4-3.9,11.7-6.1c-0.6,5.8-1.2,10.4-1.2,14.9c0,0.8,3.1,2.6,3.9,2.2c7.4-3.5,11.6-11.7,10.6-20c-0.4-3.6-2.5-4-5.7-3.8
		c-3.5,0.3-7.1,0.2-10.5-0.4c-4.9-0.9-6-4.6-5.4-9.7c5.6-1,11.4-2.5,17.3-3.1c4-0.4,5.8-2.1,5.9-5.9c0.1-4.3,0-8.5,0-13.2
		c6.1,0.7,12.9-0.4,15.9,7.1c0.7,1.8,1,4,0.7,5.9c-0.5,3,0.4,4.5,3.4,4.7c1.7,0.1,3.4,0.4,5,0.1c6.8-1.1,9.6,4,12.8,8.4
		c0.5,0.7,0.3,3-0.2,3.3c-2.3,1.3-4.9,2.7-7.4,3c-4.9,0.6-10.2-0.4-14.8,1c-2.2,0.7-4.2,5.5-4.2,8.4c0.1,3.9,3.7,2.7,6.6,2.4
		c7.3-0.8,14.8-2.1,21.8-0.9c3.8,0.6,7.2,5.5,10,9.1c1.7,2.1,1.8,5.5,2.7,8.3c0.6,0,1.2-0.1,1.8-0.1c-0.2-4.1-0.4-8.1-0.5-12.3
		c3.9,3,2.3,23.7-3.1,36c0.6-3.5,1.2-6.9,1.7-10.4c0.5-3.2,0.9-6.4,1.4-9.6c-0.7-0.1-1.4-0.2-2-0.3c-0.4,1.6-0.8,3.2-1.1,4.8
		c-1.2,6-2.1,12.1-3.6,18c-1.9,7.6-6.1,13.4-13.2,17.6c-5.2,3.1-9.8,6-15.9,3.7c-1.2-0.5-2.6-1.2-3.3-2.2c-2.7-4.3-5.6-4.4-8.6-0.1
		c-0.7,1.1-1.6,2.1-3,2.8c0.5-2.2,1.1-4.4,1.6-6.7c-0.5-0.4-1-1.1-1.5-1.1c-6.4,0.5-7.5-4.3-8.5-8.8c-0.3-1.4,0.4-3.1,1-4.5
		c2.8-6.9,1.4-14.2-2.8-17.4c1.4-4,2.7-7.6,4.2-11.8c-7.1,0.5-10.4,4.1-11.1,10c-0.9,8,1.3,15.4,4.1,22.8c3,7.7,1.6,12.4-5.2,17.2
		c-1.2,0.8-2.4,1.7-3.8,2.7c-2.1-3.7-4.3-7.2-9.6-6.2c-0.8,0.2-2.3-1.6-3-2.7c-2.1-3.6-3.9-7.3-6-10.9c-0.7-1.1-2.6-2.9-3-2.6
		c-1.4,0.8-3.1,2.2-3.6,3.6c-2.3,6.9-0.9,10.1,5,14.2c0.9,0.6,1.8,1.9,1.9,3c0.1,0.6-1.5,2-2.4,2c-5.3,0-6,3.8-6.5,7.6
		c-1.1,7.8-1.7,15.8-3.2,23.5c-0.7,3.9-2.1,7.7-7.3,8.9C954.8,171,951.8,173.8,949,175.4z M1036.6,69.5c-3.5,0.3-5.8,0.3-8.1,0.8
		c-3.6,0.8-4.6,3.7-4,6.9c0.6,3.4,3.1,3.7,6.1,3.1c2.1-0.4,4.3-0.1,6.4-0.6c1.4-0.3,3.3-1.1,3.9-2.2c0.9-1.8,2-5,1.2-5.9
		C1040.7,70.1,1037.9,70,1036.6,69.5z M1025.4,95.6c6.8-2.2,10.3-5.2,12.1-11c-4.5-0.9-7.9,1.1-10.4,3.5
		C1025.7,89.3,1026,92.3,1025.4,95.6z"/>
	<path class="st0" d="M438.4,141.6c0.4-3.9,0.8-7.3,1.2-10.7c9.5-1.3,14.4-8.3,19.6-14.8c1-1.3,2-2.6,3.1-3.9
		c4.8-6.1,4.8-6.1-1.8-10.5c4.4-5.1,16.2,0.2,16-11.4c-0.7-0.1-1.4-0.5-2.2-0.4c-2.1,0.2-5.6,1.8-5.4-1.6c0.2-2.3,3.1-5.5,5.5-6.4
		c3.2-1.2,7.1-0.6,11.5-0.9c-0.5-2.7-1-4.9-1.3-7.1c-0.3-2.5-0.7-5.6,2.6-5.9c1.7-0.1,3.5,2.1,5.2,3.3c0.4,0.3,0.7,0.9,0.7,1.3
		c-0.5,7.1,4.4,8.1,9.8,9c2,0.3,3.9,1.5,5.8,2.9c-3.5,2.1-5.9,5.5-11,4.3c-5.1-1.2-10.7-1.2-15,2.7c-1.4,1.3-1.4,4.1-2.1,6.2
		c2.5-0.1,6.2,0.7,7.1-0.6c3.7-5.1,6.5-4.6,10.1-0.1c0.7,0.8,3,0.3,4.6,0.4c5.2,0.2,10.5,0.3,15.7,0.6c0.5,0,1,1.1,2.4,3
		c-6.4,1.1-11.8,2.1-18.5,3.2c6,7.3,13.5,6.3,19.9,7.9c-3.7,6.5-3.8,6.6-11.1,4.8c-4.1-1-5,1.8-5.3,4.7c-0.3,2.6,0.4,5.4-0.2,8
		c-0.6,2.7-2.2,5.1-2.9,6.7c-3.5-0.6-7.2-1.9-7.6-1.3c-1.4,2.4-2.5,5.5-2.1,8.1c0.3,2.3,2.5,6,4.3,6.2c4.4,0.7,9.4,0.8,13.4-0.8
		c4.5-1.7,8.4-3.5,14-0.7c-2.1,1.6-3.9,4-6,4.4c-6.1,1.2-12.4,2.4-18.7,2.3c-7.2-0.1-11.4-5-12.2-12.5c-0.2-1.6,0.2-3.8-0.7-4.8
		c-3.8-4.7-2.2-7.4,3.2-8.7c-2.9-3.8-3.2-3.7-11.6,4.1c-3.9-4.4-1-9.2,5.1-16.2c5.4-6.1,12.2-2.8,17.9-4.9
		c-2.4-7.9-7.7-9.6-12.9-4.1c-4.3,4.5-8.9,8.4-14.8,10.5c-1.2,0.4-2.8,1.1-3.7,0.7c-5-2.3-7.1,0.8-9.6,4.3
		C455.1,130.6,450.9,139.7,438.4,141.6z M469.8,112.7c7.3-1.5,9.7-3.2,10.2-7.2C471.6,105.6,470.4,106.4,469.8,112.7z M493.1,127.3
		c0.4,1,0.8,2,1.3,2.9c2-0.7,4.1-1.3,6-2.3c0.2-0.1-0.7-2.4-1.1-3.7C497.2,125.2,495.1,126.3,493.1,127.3z M484.6,119.3
		c0.2,1,0.4,2.1,0.6,3.1c3.3-0.8,6.7-1.7,10-2.5c-0.1-0.6-0.2-1.3-0.3-1.9C491.4,118.4,488,118.8,484.6,119.3z"/>
	<path class="st0" d="M347.4,133.4c-7.7,5.9-14.9,5.4-22.2,4.7c-4.1-0.4-5.5,1.4-5,5.6c0.4,3.2,0.6,6.5,0.7,9.7
		c0.1,4-2.4,5.9-7.2,7.1c-0.2-2.9-0.8-5.5-0.4-7.9c0.4-2.9,1.6-5.7,2.5-8.5c1.5-4.3-1.2-5.9-4.5-5.6c-6.1,0.5-12,1.9-18.1,2.6
		c-1.5,0.2-3.2-1-4.7-1.6c0.9-1.3,1.6-3.5,2.6-3.7c6-1,12.1-1.5,18.2-2.3c2.1-0.3,4.2-0.7,6.4-1c0-0.5,0-1,0.1-1.5
		c-0.9-0.4-1.8-1.1-2.7-1.2c-5-0.4-10.5,0.3-15-1.5c-3.4-1.4-5.7-5.9-8.3-9.1c-1.2-1.5-1.9-3.4-3.1-4.8c-2.7-2.9-2.6-6.2,0.8-8.3
		c1.2-0.8,2.7-1.2,4.2-1.5c12.1-2.6,24.3-5.5,36.8-3c1.6,0.3,3.6,0.6,4.9,0c6-2.8,10.4,1.6,15.1,3.5c2.2,0.9,4.4,3.5,2.1,7
		c-1.4,2-2.1,4.4-3,6.7c-1.2,3-1.4,7-6.4,5.3c-4.6,5.2-11.1,3.1-16.8,4.3c-1.6,0.3-2.8,2-4.2,3c1.7,0.6,3.4,1.9,5.1,1.8
		c4.9-0.4,9.8-1.6,14.8-1.9C342.1,131.3,344.3,132.5,347.4,133.4z M324.4,114.7c0,0.4,0.1,0.8,0.1,1.2c-0.7,0.4-1.6,0.6-2.1,1.2
		c-0.9,1.3-1.5,2.8-2.3,4.2c1.4,0.6,2.8,1.7,4.2,1.9c5.2,0.5,8.2-2.1,8.4-7.3c0.2-4.8-2.1-7-8.1-6.7c-8.4,0.4-16.9,1.1-25.3,1.8
		c-4.5,0.4-5.8,2.9-3.9,6.9c3,6.4,12.2,8.7,18.8,4.5c-2.1-7.2-8-0.3-11.4-3.1c-0.1-3.5,1.5-5.5,5.3-5.3
		C313.5,114,319,114.4,324.4,114.7z"/>
	<path class="st0" d="M377.6,100c0,11-0.1,20,0,29c0.1,7.8,0.7,11.9,9.8,12.2c5.2,0.2,10.3,0.8,16.5,1.2c0.3-7.5,0.3-13.8,0.9-20.2
		c0.1-1.6,1.8-3,2.6-4.5c0.5-1.1,1.3-3.1,0.9-3.5c-1-0.8-2.6-1.3-3.9-1.2c-4.4,0.2-7.3,2-7.9,7c-0.5,3.8-2.1,7.6-3.7,11.2
		c-0.8,1.8-2.7,3-4.1,4.5c-0.5-0.2-0.9-0.5-1.4-0.7c1.2-3.6,2.4-7.2,3.5-10.9c1.2-3.9,3.1-7.9-1-11.4c-0.2-0.2-0.6-0.6-0.6-0.6
		c3.7-5.3-1.8-6.2-4.1-8.7c5.7-9.1,20.4-14.4,29.8-10.8c2.8,1.1,6,2.1,5.2,6c-0.5,2.3-7,4.3-9.2,2.6c-4.5-3.6-7.8-0.3-11.3,1.4
		c-0.8,0.4-1.7,2.5-1.4,3.2c0.5,1,2.2,2,3.3,2c9.5-0.5,18.9-0.9,28.3-1.9c5-0.5,8.2,1.2,11.1,5.4c-3.8,2.2-7.1,3.9-11.7,2.8
		c-4.6-1.2-9.4-1.6-14.2-1.8c-3.6-0.2-5,1.5-4.3,5.7c1.1,7,3.1,14.3-1.4,21.2c-1.7,2.6,0.2,3.3,2.8,3.2c3.8-0.2,7.6-0.1,12.6-0.1
		c-2.9,5.6-6.6,6.8-10.5,6.9c-8.6,0.1-17.3,0.4-25.8-0.6c-5.8-0.7-11.1-1.1-17.3,3.2c-0.2-4.4-0.5-7.6-0.5-10.7
		c0.3-11.1,0.4-22.2,1.3-33.2C372.2,105.4,375.3,103.1,377.6,100z"/>
	<path class="st0" d="M965.5,58.9c0.2,1.1,0.4,2.1,0.8,4c-5.7-2.4-11.1-3.2-14.9-7.9c-1.4-1.8-4.1-4.1-5.9-3.9
		c-5.1,0.7-7.1-2.3-8.9-5.8c-1.5-3.1-3.2-3.8-6.7-2.9c-7.1,1.8-14.4,2.9-22.1,3.5c1.6-1.3,3.1-2.7,4.8-3.8
		c11.8-7.7,25.2-11.8,38.7-15.1c9.2-2.3,18.7-0.3,27.5,4c0.3,0.1,0.6,0.4,0.9,0.5c8.3,4.4,8.2,4.4,2.1,11.4c-1.1,1.3-2,3.3-1.9,4.9
		c0.3,8.9-3.8,12.6-12.4,11C966.9,58.8,966.4,58.9,965.5,58.9z"/>
	<path class="st0" d="M719.4,123.6c0,2.9,0,5.2,0,6.8c-5.9,3.4-11.5,6.7-17.2,9.8c-0.9,0.5-2.5,0.8-3.3,0.4
		c-10-6.3-20.3-4.1-30.7-1.6c-2.7,0.7-5.5,1.4-8.3,1.6c-1.6,0.1-3.5-0.4-5-1.1c-2.2-1.1-4.1-2.7-6.2-3.9c-3.4-1.8-3.8-4.7-0.4-6.8
		c10.3-6.2,21.1-10.8,33.2-12.2c4.9-0.6,9.7-2,14.6-2.8c1.6-0.3,3.4,0,5.1,0.1c1.3,0.1,2.6,1,3.8,0.8c4.7-0.8,7.6,0.9,9.8,5.2
		C715.5,121.6,718,122.5,719.4,123.6z"/>
	<path class="st0" d="M1056.4,163.5c2.8,3.4,1.4,9.6,8,9.1c-0.6,4.1-2.8,7.2-6.8,8.7c-13.3,4.7-26.6,4.7-38.6-2.9
		c-6.4-4.1-11.3-10.6-16.9-16.1c-1.1-1.1-2.1-2.4-4.2-4.6c-1,5.5-1.7,9.8-2.5,14.1c-0.4,0-0.8,0.1-1.2,0.1c-0.5-2.4-0.9-4.8-1.6-7.2
		c-0.7-2.4-1-5.5-5.1-4.2c-0.9,0.3-3.1-1.4-3.5-2.6c-2.1-6.6-4-13.3-5.7-20c-0.3-1.2,0.4-2.6,0.7-3.9c1.4,0.3,3.3,0.1,4,0.9
		c2.3,2.5,4.7,3.9,8.2,3.2c6.6-1.4,9.7,3.7,13.3,7.5c7.8,8.1,14.9,17,23.1,24.7c9.6,9,19.1,7.4,26.6-3.4
		C1054.8,165.9,1055.5,164.8,1056.4,163.5z"/>
	<path class="st0" d="M328.2,87.2c2.4,1.3,4.4,2.3,5.7,3c-2.8,2.1-5.3,4.6-8.3,6.2c-1.7,0.9-4.2,0.5-6.4,0.6c-3.5,0.1-7,0.3-10.5,0
		c-1.6-0.1-3.9-1-4.4-2.2c-0.6-1.3-0.1-4,0.9-4.9c6.3-5.3,12.9-10.3,19.3-15.5c2.3-1.9,4.6-3.8,6.6-6c1-1.1,1.4-2.8,1.8-4.3
		c0.5-1.8,0.3-3.8,1.1-5.3c0.3-0.6,3.8-0.3,4.1,0.2c0.9,2.3,2.1,5.3,1.2,7.2c-2.7,6-6.3,11.6-9.6,17.4
		C329.5,84.6,329,85.7,328.2,87.2z"/>
	<path class="st0" d="M1084.8,146.3c-2.2-2.3-3.5-4.5-5.5-5.6c-1.5-0.9-3.8-0.9-5.5-0.4c-1.2,0.3-2,2.1-3,3.1
		c-6.2-3-10.2-9.7-9.3-15.4c0.5-3.1,9.2-7.6,12.1-6.3C1081.9,125.7,1086.7,135.4,1084.8,146.3z"/>
	<path class="st0" d="M421.4,83c-6,3.6-11.3,5.2-17.7,4.4c-7.3-0.9-14.8-0.7-22.3-0.9c-1.7-0.1-4.7,1.7-4.3-1.7
		c0.2-1.8,2.7-4.3,4.5-4.7c3.7-0.7,7.6-0.1,11.4-0.3c4.4-0.1,8.8-0.2,13.2-0.7C411.6,78.4,416.4,79.2,421.4,83z"/>
	<path class="st0" d="M1041.1,140.3c-2,7.9-1.7,9.2,3.7,11.3c-0.7,0.4-1.2,0.9-1.6,0.9c-7.3,1.1-22.2-8.1-24.5-15.1
		c-0.2-0.6-0.1-1.3-0.2-1.9C1024,134.1,1027.8,134.9,1041.1,140.3z"/>
	<path class="st0" d="M304,64.3c0.6,2.7,1.5,5,1.4,7.2c0,1.6-1.3,3.2-2,4.8c-0.7,1.9-1.1,4-2.1,5.8c-0.7,1.4-2,2.5-3,3.8
		c-1-1-2.4-1.9-3-3.1c-1.1-2.5-1.8-5.3-2.6-7.9c-1.2-4,3.6-10.2,8-10.2C301.8,64.6,302.7,64.4,304,64.3z"/>
	<path class="st0" d="M648.8,162.8c6.9,4.3,13.8,8.5,20.4,12.6C662.3,175.8,648.9,167.5,648.8,162.8z"/>
	<path class="st0" d="M964.1,172.6c2.7-9.6,5.5-19.2,8.2-28.9C970.3,153.5,970.8,164,964.1,172.6z"/>
	<path class="st0" d="M297.9,151.9c0.2-2.7,0.3-5.4,0.5-9.2c2.8,1.8,4.4,2.8,6.8,4.3c-1.9,2.1-3.6,3.8-5.2,5.6
		C299.3,152.4,298.6,152.1,297.9,151.9z"/>
	<path class="st0" d="M67.7,71c-2-4.2-3.9-8.4-6.2-13.3c1.3-0.2,3.3-0.8,3.3-0.6c1.8,4.3,3.4,8.7,5,13.1
		C69.1,70.5,68.4,70.7,67.7,71z"/>
</g>
</svg>
